<svg width="560" height="466" viewBox="0 0 560 466" fill="none" xmlns="http://www.w3.org/2000/svg">
<path d="M432.126 233C432.126 350.927 339.422 445.5 226.313 445.5C113.204 445.5 20.5 350.927 20.5 233C20.5 115.073 113.204 20.5 226.313 20.5C339.422 20.5 432.126 115.073 432.126 233Z" stroke="black" stroke-width="41"/>
<path d="M375.989 51.2337L435.442 117.684L464.633 232.892L450.038 323.055L415.981 388.172L350.299 430.749L311.377 400.695L384.356 323.055L408.683 232.892L375.989 140.225L333.272 77.6121L375.989 51.2337Z" fill="white"/>
<path d="M261.362 271.578L473.019 53.6672" stroke="#F25A19" stroke-width="60"/>
<line y1="-29.5" x2="206.019" y2="-29.5" transform="matrix(0.696739 -0.717325 0.696739 0.717325 328.454 345.677)" stroke="black" stroke-width="59"/>
<line y1="-29.5" x2="80.1202" y2="-29.5" transform="matrix(0.696941 0.717129 -0.696536 0.717521 328.518 345.742)" stroke="black" stroke-width="59"/>
</svg>
